<svg width="316" height="316" viewBox="0 0 316 316" fill="none" xmlns="http://www.w3.org/2000/svg">
<path d="M0 157.88C0 70.6853 70.6853 0 157.88 0C245.075 0 315.76 70.6853 315.76 157.88C315.76 245.075 245.075 315.76 157.88 315.76C70.6853 315.76 0 245.075 0 157.88Z" fill="black"/>
<path d="M253.074 121.999L243.673 122.566C243.406 121.388 242.74 120.377 241.673 119.532C240.628 118.666 239.206 118.232 237.406 118.232C235.806 118.232 234.461 118.566 233.372 119.232C232.283 119.899 231.739 120.788 231.739 121.899C231.739 122.788 232.094 123.544 232.806 124.166C233.517 124.788 234.728 125.288 236.439 125.666L243.206 127C250.363 128.422 253.941 131.778 253.941 137.067C253.941 139.534 253.23 141.69 251.807 143.534C250.385 145.379 248.429 146.812 245.94 147.835C243.451 148.857 240.595 149.368 237.373 149.368C232.439 149.368 228.516 148.346 225.605 146.301C222.694 144.234 220.982 141.423 220.471 137.867L230.605 137.334C231.294 140.401 233.561 141.934 237.406 141.934C239.206 141.934 240.662 141.579 241.773 140.868C242.884 140.156 243.44 139.256 243.44 138.167C243.44 136.323 241.851 135.078 238.673 134.434L232.239 133.1C225.06 131.656 221.471 128.122 221.471 122.499C221.471 118.899 222.905 116.065 225.772 113.999C228.661 111.932 232.483 110.898 237.239 110.898C241.951 110.898 245.662 111.898 248.374 113.899C251.085 115.877 252.652 118.577 253.074 121.999Z" fill="white"/>
<path d="M181.116 162.569V111.365H191.283V117.666H191.75C192.217 116.643 192.873 115.61 193.717 114.565C194.584 113.521 195.717 112.654 197.117 111.965C198.54 111.254 200.284 110.898 202.351 110.898C205.085 110.898 207.585 111.609 209.852 113.032C212.141 114.432 213.974 116.554 215.352 119.399C216.73 122.244 217.419 125.8 217.419 130.067C217.419 134.2 216.752 137.701 215.419 140.568C214.085 143.412 212.274 145.568 209.985 147.035C207.696 148.502 205.129 149.235 202.284 149.235C200.284 149.235 198.584 148.902 197.184 148.235C195.806 147.568 194.673 146.735 193.784 145.735C192.917 144.712 192.239 143.69 191.75 142.668H191.45V162.569H181.116ZM191.217 130.033C191.217 133.322 191.895 135.978 193.25 138.001C194.628 140.023 196.562 141.034 199.051 141.034C201.584 141.034 203.518 140.012 204.851 137.967C206.185 135.9 206.851 133.256 206.851 130.033C206.851 126.789 206.185 124.155 204.851 122.133C203.54 120.11 201.607 119.099 199.051 119.099C196.562 119.099 194.628 120.088 193.25 122.066C191.895 124.044 191.217 126.7 191.217 130.033Z" fill="white"/>
<path d="M159.262 149.368C155.439 149.368 152.15 148.59 149.394 147.035C146.639 145.479 144.516 143.268 143.027 140.401C141.538 137.512 140.794 134.1 140.794 130.167C140.794 126.344 141.527 122.988 142.994 120.099C144.483 117.21 146.572 114.954 149.261 113.332C151.95 111.709 155.117 110.898 158.762 110.898C162.051 110.898 165.018 111.598 167.663 112.998C170.33 114.399 172.441 116.499 173.997 119.299C175.574 122.099 176.363 125.611 176.363 129.833V132.633H150.961C151.072 135.456 151.895 137.667 153.428 139.267C154.962 140.868 156.962 141.668 159.429 141.668C161.14 141.668 162.607 141.301 163.829 140.568C165.074 139.834 165.963 138.767 166.496 137.367L176.03 138.001C175.297 141.423 173.463 144.179 170.53 146.268C167.618 148.335 163.862 149.368 159.262 149.368ZM151.028 126.266H166.463C166.218 123.911 165.462 122.044 164.196 120.666C162.929 119.288 161.151 118.599 158.862 118.599C156.551 118.599 154.717 119.321 153.361 120.766C152.028 122.188 151.25 124.022 151.028 126.266Z" fill="white"/>
<path d="M120.44 149.368C116.618 149.368 113.328 148.59 110.573 147.035C107.817 145.479 105.694 143.268 104.205 140.401C102.716 137.512 101.972 134.1 101.972 130.167C101.972 126.344 102.705 122.988 104.172 120.099C105.661 117.21 107.75 114.954 110.439 113.332C113.128 111.709 116.295 110.898 119.94 110.898C123.229 110.898 126.196 111.598 128.841 112.998C131.508 114.399 133.619 116.499 135.175 119.299C136.753 122.099 137.542 125.611 137.542 129.833V132.633H112.139C112.251 135.456 113.073 137.667 114.606 139.267C116.14 140.868 118.14 141.668 120.607 141.668C122.318 141.668 123.785 141.301 125.007 140.568C126.252 139.834 127.141 138.767 127.674 137.367L137.208 138.001C136.475 141.423 134.641 144.179 131.708 146.268C128.796 148.335 125.041 149.368 120.44 149.368ZM112.206 126.266H127.641C127.396 123.911 126.641 122.044 125.374 120.666C124.107 119.288 122.329 118.599 120.04 118.599C117.729 118.599 115.895 119.321 114.54 120.766C113.206 122.188 112.428 124.022 112.206 126.266Z" fill="white"/>
<path d="M62.4497 162.569V111.365H72.6172V117.666H73.0839C73.5507 116.643 74.2063 115.61 75.0508 114.565C75.9175 113.521 77.0509 112.654 78.4511 111.965C79.8734 111.254 81.618 110.898 83.6848 110.898C86.4184 110.898 88.9186 111.609 91.1855 113.032C93.4746 114.432 95.3081 116.554 96.686 119.399C98.0639 122.244 98.7528 125.8 98.7528 130.067C98.7528 134.2 98.0861 137.701 96.7526 140.568C95.4192 143.412 93.6079 145.568 91.3188 147.035C89.0297 148.502 86.4629 149.235 83.6182 149.235C81.618 149.235 79.9179 148.902 78.5177 148.235C77.1398 147.568 76.0064 146.735 75.1175 145.735C74.2507 144.712 73.5729 143.69 73.0839 142.668H72.7839V162.569H62.4497ZM72.5506 130.033C72.5506 133.322 73.2284 135.978 74.5841 138.001C75.962 140.023 77.8955 141.034 80.3846 141.034C82.9181 141.034 84.8516 140.012 86.1851 137.967C87.5185 135.9 88.1852 133.256 88.1852 130.033C88.1852 126.789 87.5185 124.155 86.1851 122.133C84.8738 120.11 82.9403 119.099 80.3846 119.099C77.8955 119.099 75.962 120.088 74.5841 122.066C73.2284 124.044 72.5506 126.7 72.5506 130.033Z" fill="white"/>
<path d="M234.772 210.529C230.95 210.529 227.661 209.71 224.905 208.195C222.149 206.64 220.027 204.429 218.538 201.562C217.049 198.672 216.304 195.261 216.304 191.327C216.304 187.505 217.038 184.149 218.504 181.26C219.993 178.371 222.082 176.115 224.772 174.493C227.461 172.87 230.628 172.059 234.272 172.059C237.562 172.059 240.528 172.759 243.173 174.159C245.84 175.559 247.951 177.66 249.507 180.46C251.085 183.26 251.874 186.771 251.874 190.994V193.794H226.472C226.583 196.617 227.405 198.828 228.939 200.428C230.472 202.028 232.472 202.828 234.939 202.828C236.65 202.828 238.117 202.462 239.339 201.728C240.584 200.995 241.473 199.928 242.006 198.528L251.541 199.161C250.807 202.584 248.974 205.34 246.04 207.429C243.129 209.496 239.373 210.529 234.772 210.529ZM226.538 187.427H241.973C241.729 185.071 240.973 183.204 239.706 181.827C238.439 180.449 236.661 179.76 234.372 179.76C232.061 179.76 230.228 180.482 228.872 181.927C227.538 183.349 226.761 185.182 226.538 187.427Z" fill="white"/>
<path d="M196.517 210.529C192.695 210.529 189.417 209.718 186.683 208.095C183.949 206.473 181.849 204.217 180.382 201.328C178.938 198.439 178.216 195.105 178.216 191.327C178.216 187.505 178.949 184.149 180.416 181.26C181.905 178.371 184.016 176.115 186.75 174.493C189.483 172.87 192.728 172.059 196.484 172.059C199.729 172.059 202.573 172.648 205.018 173.826C207.463 175.004 209.396 176.659 210.818 178.793C212.241 180.927 213.019 183.438 213.152 186.327H203.418C203.129 184.482 202.407 182.993 201.251 181.86C200.095 180.704 198.562 180.126 196.65 180.126C194.25 180.126 192.328 181.093 190.883 183.027C189.439 184.938 188.716 187.66 188.716 191.194C188.716 194.75 189.428 197.517 190.85 199.495C192.295 201.473 194.228 202.462 196.65 202.462C198.428 202.462 199.929 201.906 201.151 200.795C202.373 199.684 203.129 198.128 203.418 196.128H213.152C212.996 198.972 212.23 201.484 210.852 203.662C209.474 205.818 207.563 207.507 205.118 208.729C202.695 209.929 199.829 210.529 196.517 210.529Z" fill="white"/>
<path d="M152.528 210.496C148.972 210.496 146.016 209.573 143.661 207.729C141.327 205.862 140.16 203.084 140.16 199.395C140.16 196.617 140.805 194.439 142.094 192.861C143.405 191.261 145.127 190.094 147.261 189.361C149.395 188.605 151.684 188.116 154.128 187.894C157.373 187.583 159.684 187.26 161.062 186.927C162.462 186.571 163.162 185.794 163.162 184.593V184.427C163.162 182.893 162.673 181.704 161.696 180.86C160.718 180.015 159.306 179.593 157.462 179.593C155.617 179.593 154.106 179.993 152.928 180.793C151.772 181.593 151.006 182.616 150.628 183.86L141.227 182.36C142.116 179.115 143.983 176.593 146.828 174.793C149.695 172.97 153.25 172.059 157.495 172.059C160.251 172.059 162.84 172.492 165.263 173.359C167.707 174.226 169.685 175.593 171.196 177.46C172.708 179.304 173.463 181.704 173.463 184.66V209.796H163.696V204.595H163.396C162.485 206.351 161.129 207.773 159.329 208.862C157.551 209.951 155.284 210.496 152.528 210.496ZM149.995 199.061C149.995 200.484 150.506 201.562 151.528 202.295C152.573 203.006 153.884 203.362 155.462 203.362C157.729 203.362 159.584 202.706 161.029 201.395C162.496 200.084 163.229 198.45 163.229 196.494V192.527C162.829 192.794 162.196 193.039 161.329 193.261C160.484 193.483 159.584 193.672 158.629 193.828C157.673 193.961 156.817 194.083 156.062 194.194C154.239 194.461 152.773 194.983 151.661 195.761C150.55 196.517 149.995 197.617 149.995 199.061Z" fill="white"/>
</svg>
